<svg width="155" height="54" viewBox="0 0 155 54" fill="none" xmlns="http://www.w3.org/2000/svg">
<path d="M26.84 32.92C26.84 34.8933 26.4 36.68 25.52 38.28C24.6667 39.8533 23.36 41.1067 21.6 42.04C19.8667 42.9467 17.6667 43.4 15 43.4C11.2133 43.4 8.33333 42.44 6.36 40.52C4.38667 38.5733 3.4 36.0133 3.4 32.84V14.44H9.44V31.92C9.44 34.2667 9.92 35.92 10.88 36.88C11.84 37.84 13.2667 38.32 15.16 38.32C17.1333 38.32 18.56 37.8 19.44 36.76C20.3467 35.72 20.8 34.0933 20.8 31.88V14.44H26.84V32.92ZM61.065 35.08C61.065 37.6133 60.145 39.64 58.305 41.16C56.4917 42.6533 53.905 43.4 50.545 43.4C47.5317 43.4 44.8383 42.8267 42.465 41.68V36.04C43.825 36.6267 45.225 37.1733 46.665 37.68C48.1317 38.16 49.585 38.4 51.025 38.4C52.5183 38.4 53.5717 38.12 54.185 37.56C54.825 36.9733 55.145 36.24 55.145 35.36C55.145 34.64 54.8917 34.0267 54.385 33.52C53.905 33.0133 53.2517 32.5467 52.425 32.12C51.5983 31.6667 50.6517 31.1867 49.585 30.68C48.9183 30.36 48.1983 29.9867 47.425 29.56C46.6517 29.1067 45.905 28.56 45.185 27.92C44.4917 27.2533 43.9183 26.4533 43.465 25.52C43.0117 24.5867 42.785 23.4667 42.785 22.16C42.785 19.6 43.6517 17.6133 45.385 16.2C47.1183 14.76 49.4783 14.04 52.465 14.04C53.9583 14.04 55.3717 14.2133 56.705 14.56C58.065 14.9067 59.4783 15.4 60.945 16.04L58.985 20.76C57.6783 20.2267 56.505 19.8133 55.465 19.52C54.425 19.2267 53.3583 19.08 52.265 19.08C51.1183 19.08 50.2383 19.3467 49.625 19.88C49.0117 20.4133 48.705 21.1067 48.705 21.96C48.705 22.9733 49.1583 23.7733 50.065 24.36C50.9717 24.9467 52.3183 25.6667 54.105 26.52C55.5717 27.2133 56.8117 27.9333 57.825 28.68C58.865 29.4267 59.665 30.3067 60.225 31.32C60.785 32.3333 61.065 33.5867 61.065 35.08ZM74.9763 38.64C75.6429 38.64 76.2829 38.5733 76.8963 38.44C77.5096 38.3067 78.1229 38.1467 78.7363 37.96V42.4C78.0963 42.6667 77.2963 42.8933 76.3363 43.08C75.4029 43.2933 74.3763 43.4 73.2563 43.4C71.9496 43.4 70.7763 43.1867 69.7363 42.76C68.7229 42.3333 67.9096 41.6 67.2963 40.56C66.7096 39.4933 66.4163 38.0267 66.4163 36.16V25.64H63.5763V23.12L66.8563 21.12L68.5763 16.52H72.3763V21.16H78.4963V25.64H72.3763V36.16C72.3763 36.9867 72.6163 37.6133 73.0963 38.04C73.5763 38.44 74.2029 38.64 74.9763 38.64ZM103.16 21.16V43H98.6L97.8 40.2H97.48C96.7867 41.32 95.8267 42.1333 94.6 42.64C93.4 43.1467 92.12 43.4 90.76 43.4C88.4133 43.4 86.5333 42.7733 85.12 41.52C83.7067 40.24 83 38.2 83 35.4V21.16H88.96V33.92C88.96 35.4667 89.24 36.64 89.8 37.44C90.36 38.24 91.2533 38.64 92.48 38.64C94.2933 38.64 95.5333 38.0267 96.2 36.8C96.8667 35.5467 97.2 33.76 97.2 31.44V21.16H103.16ZM116.329 43.4C113.902 43.4 111.916 42.4533 110.369 40.56C108.849 38.64 108.089 35.8267 108.089 32.12C108.089 28.3867 108.862 25.56 110.409 23.64C111.956 21.72 113.982 20.76 116.489 20.76C118.062 20.76 119.356 21.0667 120.369 21.68C121.382 22.2933 122.182 23.0533 122.769 23.96H122.969C122.889 23.5333 122.796 22.92 122.689 22.12C122.582 21.2933 122.529 20.4533 122.529 19.6V12.6H128.489V43H123.929L122.769 40.16H122.529C121.942 41.0667 121.156 41.84 120.169 42.48C119.182 43.0933 117.902 43.4 116.329 43.4ZM118.409 38.64C120.062 38.64 121.222 38.16 121.889 37.2C122.556 36.2133 122.902 34.7467 122.929 32.8V32.16C122.929 30.0267 122.596 28.4 121.929 27.28C121.289 26.16 120.089 25.6 118.329 25.6C117.022 25.6 115.996 26.1733 115.249 27.32C114.502 28.44 114.129 30.0667 114.129 32.2C114.129 34.3333 114.502 35.9467 115.249 37.04C115.996 38.1067 117.049 38.64 118.409 38.64ZM131.602 21.16H138.122L142.242 33.44C142.455 34.0267 142.615 34.64 142.722 35.28C142.828 35.8933 142.908 36.5467 142.962 37.24H143.082C143.162 36.5467 143.268 35.8933 143.402 35.28C143.562 34.64 143.735 34.0267 143.922 33.44L147.962 21.16H154.362L145.122 45.8C144.295 48.0667 143.082 49.76 141.482 50.88C139.908 52.0267 138.082 52.6 136.002 52.6C135.335 52.6 134.748 52.56 134.242 52.48C133.762 52.4267 133.335 52.36 132.962 52.28V47.56C133.255 47.6133 133.602 47.6667 134.002 47.72C134.428 47.7733 134.868 47.8 135.322 47.8C136.575 47.8 137.562 47.4133 138.282 46.64C139.028 45.8933 139.575 44.9867 139.922 43.92L140.282 42.84L131.602 21.16Z" fill="black"/>
<path d="M31.5 28.5C31.5 26.2909 33.2909 24.5 35.5 24.5C37.7091 24.5 39.5 26.2909 39.5 28.5C39.5 30.7091 37.7091 32.5 35.5 32.5C33.2909 32.5 31.5 30.7091 31.5 28.5Z" fill="#FF5261"/>
</svg>
